<svg xmlns="http://www.w3.org/2000/svg" width="14" height="14" viewBox="0 0 14 14">
  <metadata><?xpacket begin="﻿" id="W5M0MpCehiHzreSzNTczkc9d"?>
<x:xmpmeta xmlns:x="adobe:ns:meta/" x:xmptk="Adobe XMP Core 5.6-c138 79.159824, 2016/09/14-01:09:01        ">
   <rdf:RDF xmlns:rdf="http://www.w3.org/1999/02/22-rdf-syntax-ns#">
      <rdf:Description rdf:about=""/>
   </rdf:RDF>
</x:xmpmeta>
                                                                                                    
                                                                                                    
                                                                                                    
                                                                                                    
                                                                                                    
                                                                                                    
                                                                                                    
                                                                                                    
                                                                                                    
                                                                                                    
                                                                                                    
                                                                                                    
                                                                                                    
                                                                                                    
                                                                                                    
                                                                                                    
                                                                                                    
                                                                                                    
                                                                                                    
                                                                                                    
                           
<?xpacket end="w"?></metadata>
<defs>
    <style>
      .cls-1 {
        fill: #ccc;
        fill-rule: evenodd;
      }
    </style>
  </defs>
  <path class="cls-1" d="M1129,335.71v-1.42a0.633,0.633,0,0,0-.64-0.636h-1.15a5.2,5.2,0,0,0-.58-1.385l0.82-.817a0.633,0.633,0,0,0,0-.9l-1-1a0.637,0.637,0,0,0-.9,0l-0.82.817a5.4,5.4,0,0,0-1.38-.573v-1.156a0.64,0.64,0,0,0-.64-0.636h-1.42a0.64,0.64,0,0,0-.64.636v1.156a5.4,5.4,0,0,0-1.38.573l-0.82-.817a0.637,0.637,0,0,0-.9,0l-1,1a0.633,0.633,0,0,0,0,.9l0.82,0.817a5.2,5.2,0,0,0-.58,1.385h-1.15a0.633,0.633,0,0,0-.64.636v1.42a0.633,0.633,0,0,0,.64.636h1.15a5.2,5.2,0,0,0,.58,1.385l-0.82.817a0.633,0.633,0,0,0,0,.9l1,1a0.637,0.637,0,0,0,.9,0l0.82-.817a5.4,5.4,0,0,0,1.38.573v1.156a0.64,0.64,0,0,0,.64.636h1.42a0.64,0.64,0,0,0,.64-0.636v-1.156a5.4,5.4,0,0,0,1.38-.573l0.82,0.817a0.637,0.637,0,0,0,.9,0l1-1a0.633,0.633,0,0,0,0-.9l-0.82-.817a5.2,5.2,0,0,0,.58-1.385h1.15A0.633,0.633,0,0,0,1129,335.71ZM1122,338a3,3,0,1,1,3-3A3,3,0,0,1,1122,338Z" transform="translate(-1115 -328)"/>
</svg>
