<svg xmlns="http://www.w3.org/2000/svg" width="15" height="11" viewBox="0 0 15 11">
  <metadata><?xpacket begin="﻿" id="W5M0MpCehiHzreSzNTczkc9d"?>
<x:xmpmeta xmlns:x="adobe:ns:meta/" x:xmptk="Adobe XMP Core 5.6-c138 79.159824, 2016/09/14-01:09:01        ">
   <rdf:RDF xmlns:rdf="http://www.w3.org/1999/02/22-rdf-syntax-ns#">
      <rdf:Description rdf:about=""/>
   </rdf:RDF>
</x:xmpmeta>
                                                                                                    
                                                                                                    
                                                                                                    
                                                                                                    
                                                                                                    
                                                                                                    
                                                                                                    
                                                                                                    
                                                                                                    
                                                                                                    
                                                                                                    
                                                                                                    
                                                                                                    
                                                                                                    
                                                                                                    
                                                                                                    
                                                                                                    
                                                                                                    
                                                                                                    
                                                                                                    
                           
<?xpacket end="w"?></metadata>
<defs>
    <style>
      .cls-1 {
        fill: #999;
        fill-rule: evenodd;
      }
    </style>
  </defs>
  <path class="cls-1" d="M836.477,628c-4.092,0-7.283-5.021-7.417-5.234a0.5,0.5,0,0,1,0-.532c0.134-.213,3.325-5.234,7.417-5.234s7.283,5.021,7.417,5.234a0.5,0.5,0,0,1,0,.532C843.76,622.979,840.569,628,836.477,628Zm-6.392-5.5c0.7,1,3.346,4.5,6.392,4.5s5.7-3.5,6.392-4.5c-0.7-1-3.346-4.5-6.392-4.5S830.78,621.5,830.085,622.5Zm6.392,3.25a3.25,3.25,0,1,1,3.247-3.25A3.252,3.252,0,0,1,836.477,625.75Zm0-5.5a2.25,2.25,0,1,0,2.248,2.25A2.252,2.252,0,0,0,836.477,620.25Z" transform="translate(-829 -617)"/>
</svg>
