<?xml version="1.0" encoding="utf-8"?>
<!-- Generator: Adobe Illustrator 21.0.0, SVG Export Plug-In . SVG Version: 6.00 Build 0)  -->
<svg version="1.1" id="Layer_1" xmlns="http://www.w3.org/2000/svg" xmlns:xlink="http://www.w3.org/1999/xlink" x="0px" y="0px"
	 viewBox="0 0 32 34" style="enable-background:new 0 0 32 34;" xml:space="preserve">
<style type="text/css">
	.st0{fill:#999898;}
</style>
<g>
	<path class="st0" d="M12.6,1.4c-0.7,0-1.4,0-2-0.1c0-0.1,0.2-0.2,0.3-0.2c2.3-0.9,5.1-1.3,7.7-0.8c1,0.2,2,0.4,2.8,0.9v0
		c0,0.1-2.7,0.1-4.1,0.1l-0.7,0L12.6,1.4z M32,15.8C32,15.8,32,15.8,32,15.8L32,15.8c-0.3-3.3-1.7-6.1-3.4-8.8
		C27.2,5,25.4,3.1,23.3,2c-0.1,0-0.2,0-0.2,0.1c0.2,0.8,0.6,1.5,0.8,2.2c0,0.1,0,0.3-0.1,0.4c-0.1,0.1-0.2,0-0.3-0.1
		c-1.5-1.7-3.7-2.4-5.9-2.3c-0.2,0-0.5,0-0.6,0.2c-0.2,0.4,0,0.9-0.1,1.4c0,2-0.1,4.1,0,6.1c0,0.1,0,0.1,0,0.2l0,1.6l0.2,5
		c0,0.1,0,0.4,0,0.5c0.1,1.8,0.2,3.7,0.5,5.5c0,0.2-0.1,0.3-0.3,0.3c-0.6,0.1-1.5,0.1-2.2,0c-0.1-0.1-0.2-0.2-0.2-0.3
		c0.2-2.3,0.5-4.7,0.6-7.1l0.1-3.7c0-1.1,0.1-2.1,0-3.2V4.3c0-0.6,0-1.1,0-1.7c-0.1-0.2-0.3-0.2-0.5-0.2l-1.9,0
		c-1.4,0.2-3.2,1-4.3,2.4C8.5,4.8,8.4,4.8,8.3,4.7c-0.1-0.2,0-0.4,0-0.6C8.6,3.4,9,2.8,9.2,2.1V1.9c0-0.1-0.1,0-0.2,0
		C7.9,2.4,6.9,3.2,5.9,4.1c-2.7,2.4-4.2,5.4-5.2,8.6c-0.4,1.4-0.8,2.7-0.7,4c0,0.1,0.2-0.1,0.2-0.2c0.3-0.6,0.8-1.2,1.3-1.8
		c1.4-1.4,3.3-1.8,5.2-2c0.1-0.1,0.2,0,0.3-0.1c-0.3-0.2-0.8-0.4-1.1-0.6c-0.4-0.3-0.9-0.6-1.1-1C4.1,9.9,4.3,8.6,4.6,7.7
		c0.5-1.2,1.8-1.9,3-2.1c1.8-0.2,3.6-0.2,5.5-0.1c0.1,0.1,0.2,0.2,0.2,0.3c-0.1,2.2-0.3,4.2-0.4,6.3c0,0.7-0.1,1.3-0.1,1.9
		c-0.2,1.8-0.2,3.7-0.1,5.6c0.3,1.7,0.4,3.6,1.8,4.9c0.7,0.7,1.9,0.7,2.7,0.4c1.6-0.9,1.8-2.8,2.1-4.3c0.3-2.2,0.2-4.6,0-6.9
		c-0.2-2.6-0.4-5.1-0.6-7.7c0-0.1,0-0.2,0-0.3c0.1-0.2,0.3-0.3,0.4-0.3l2.6,0c1.5,0,2.9-0.3,4.1,0.4c1.4,0.8,2.3,2.2,2.1,3.8
		c-0.2,1.3-1.5,2.1-2.5,2.5c-0.1,0.1-0.3,0.1-0.3,0.2c0.7,0.1,1.6,0.2,2.3,0.4c1.9,0.3,3.7,1.9,4.5,3.7c0,0,0.1,0,0.1,0
		C32,16.1,32,16,32,15.8C32,15.8,32,15.8,32,15.8z M32,15.8C32,15.8,32,15.8,32,15.8C32,15.8,32,15.8,32,15.8
		C32,15.8,32,15.8,32,15.8z M31,22c-1.3,1.7-3.5,2.1-5.3,2.3c-1.6,0.1-3.1,0.3-4.6,0.1c-0.1-0.1-0.2-0.2-0.2-0.3
		c0.1-0.3,0.1-0.7,0.4-0.9c0.4-0.1,0.9,0.2,1.3,0.3c2.3,0.4,4.9,0.3,6.5-1.5c1.2-1.4,1.4-3.3,1-5c-0.1-0.2-0.1-0.2-0.2-0.5
		c-0.4-0.7-0.8-1.5-1.5-2c-2-1.4-4.8-1.6-7.2-0.9c-0.1,0-0.2-0.1-0.3-0.2c-0.1-0.4-0.1-0.8,0.3-1c0.7-0.2,1.5-0.3,2.2-0.6
		c0.1,0,0,0,0.1,0c0.9-0.3,1.9-0.8,2.4-1.7c0.5-0.9,0.2-2.2-0.4-2.9c-0.6-0.6-1.3-0.9-2.1-1c-1,0-2,0-2.9,0.1
		c-0.2,0-0.2,0.2-0.2,0.4l0,6.2c0,2.3,0,4.7,0,7.1c0,1.6-0.1,3-0.8,4.4c-0.4,0.7-1.1,1.3-1.9,1.6c0,0.4,0.3,0.1,0.5,0.6
		c1.3,1.6,0.1,3.4-0.6,4.8c-0.4,0.8-0.8,1.6-0.8,2.5c0.1,0.2,0.4,0.2,0.6,0.2c4-0.3,7.5-2,10.4-4.8c0.9-0.8,1.6-1.8,2.3-2.8
		c0.5-0.9,1-1.9,1.4-2.9c0.3-0.9,0.6-1.9,0.6-2.9l0,0C31.5,20.9,31.4,21.6,31,22z M14.1,26.5c0.3-0.4,0.5-0.2,0.5-0.6
		c-0.7-0.3-1.5-0.9-1.9-1.6C12,23,11.9,21.5,11.9,20c0-2.4,0-4.8,0-7.1l0-6.2c0-0.1-0.1-0.3-0.2-0.4c-1-0.1-2-0.1-2.9,0
		c-0.8,0.1-1.5,0.4-2.1,1c-0.6,0.8-0.9,2-0.4,2.9c0.5,1,1.5,1.4,2.4,1.7c0.1,0,0,0,0.1,0c0.7,0.3,1.5,0.3,2.2,0.6
		c0.4,0.2,0.3,0.6,0.3,1c-0.1,0.1-0.2,0.1-0.3,0.2c-2.4-0.7-5.2-0.5-7.1,0.9c-0.7,0.5-1.1,1.3-1.5,2C2.1,16.8,2.1,16.8,2,17
		c-0.4,1.7-0.2,3.7,1,5c1.7,1.7,4.3,1.9,6.6,1.4c0.5-0.1,0.9-0.4,1.3-0.3c0.3,0.2,0.3,0.6,0.4,0.9c0,0.2-0.1,0.3-0.2,0.3
		c-1.5,0.2-3,0-4.6-0.1c-2-0.3-4-0.6-5.4-2.3c-0.4-0.4-0.6-1-0.9-1.4l0,0c0,1,0.3,1.9,0.6,2.9c0.4,1,0.9,2,1.4,2.9
		c0.2,0.3,1.3,1.9,2.3,2.8c2.9,2.8,6.4,4.5,10.4,4.7c0.2,0,0.5,0,0.6-0.2c0-0.9-0.4-1.7-0.8-2.5C14,29.9,12.8,28.1,14.1,26.5z"/>
</g>
</svg>
