<svg xmlns="http://www.w3.org/2000/svg" width="16" height="18" viewBox="0 0 16 18">
  <metadata><?xpacket begin="﻿" id="W5M0MpCehiHzreSzNTczkc9d"?>
<x:xmpmeta xmlns:x="adobe:ns:meta/" x:xmptk="Adobe XMP Core 5.6-c138 79.159824, 2016/09/14-01:09:01        ">
   <rdf:RDF xmlns:rdf="http://www.w3.org/1999/02/22-rdf-syntax-ns#">
      <rdf:Description rdf:about=""/>
   </rdf:RDF>
</x:xmpmeta>
                                                                                                    
                                                                                                    
                                                                                                    
                                                                                                    
                                                                                                    
                                                                                                    
                                                                                                    
                                                                                                    
                                                                                                    
                                                                                                    
                                                                                                    
                                                                                                    
                                                                                                    
                                                                                                    
                                                                                                    
                                                                                                    
                                                                                                    
                                                                                                    
                                                                                                    
                                                                                                    
                           
<?xpacket end="w"?></metadata>
<defs>
    <style>
      .cls-1 {
        fill: #b3b3b3;
        fill-rule: evenodd;
      }
    </style>
  </defs>
  <path class="cls-1" d="M791,566a8.009,8.009,0,0,0-8,8v8a2,2,0,0,0,4,0v-3a1.988,1.988,0,0,0-3-1.723V574a7,7,0,0,1,14,0v3.277A1.988,1.988,0,0,0,795,579v3a2,2,0,0,0,4,0v-8A8.009,8.009,0,0,0,791,566Zm-6,12a1,1,0,0,1,1,1v3a1,1,0,0,1-2,0v-3A1,1,0,0,1,785,578Zm13,4a1,1,0,0,1-2,0v-3a1,1,0,0,1,2,0v3Z" transform="translate(-783 -566)"/>
</svg>
