<svg xmlns="http://www.w3.org/2000/svg" width="47.969" height="52.031" viewBox="0 0 47.969 52.031">
  <metadata><?xpacket begin="﻿" id="W5M0MpCehiHzreSzNTczkc9d"?>
<x:xmpmeta xmlns:x="adobe:ns:meta/" x:xmptk="Adobe XMP Core 5.6-c138 79.159824, 2016/09/14-01:09:01        ">
   <rdf:RDF xmlns:rdf="http://www.w3.org/1999/02/22-rdf-syntax-ns#">
      <rdf:Description rdf:about=""/>
   </rdf:RDF>
</x:xmpmeta>
                                                                                                    
                                                                                                    
                                                                                                    
                                                                                                    
                                                                                                    
                                                                                                    
                                                                                                    
                                                                                                    
                                                                                                    
                                                                                                    
                                                                                                    
                                                                                                    
                                                                                                    
                                                                                                    
                                                                                                    
                                                                                                    
                                                                                                    
                                                                                                    
                                                                                                    
                                                                                                    
                           
<?xpacket end="w"?></metadata>
<defs>
    <style>
      .cls-1 {
        fill-rule: evenodd;
      }
    </style>
  </defs>
  <path class="cls-1" d="M694.918,42.049a25.252,25.252,0,0,1-2.988-.207,0.575,0.575,0,0,1,.4-0.323,21.566,21.566,0,0,1,11.484-1.227,12.883,12.883,0,0,1,4.2,1.395v0.065c-0.04.123-4,.155-6.116,0.181l-0.991.026Zm29.047,22.064c0-.015,0-0.025,0-0.041l0.015,0.048c-0.451-4.985-2.536-9.376-5.111-13.483a22.94,22.94,0,0,0-7.983-7.555c-0.1-.039-0.348-0.065-0.322.116,0.309,1.175.876,2.234,1.236,3.384a0.461,0.461,0,0,1-.167.542,0.523,0.523,0,0,1-.489-0.09,10.443,10.443,0,0,0-8.923-3.487,1.3,1.3,0,0,0-.966.232,10.04,10.04,0,0,0-.193,2.105c0.051,3.087-.077,6.277-0.064,9.35,0,0.1,0,.143,0,0.258l0.025,2.467,0.232,7.568a2.133,2.133,0,0,1,.013.814,69.984,69.984,0,0,0,.811,8.42,0.414,0.414,0,0,1-.5.465,27.479,27.479,0,0,1-3.3.052,0.464,0.464,0,0,1-.251-0.517c0.309-3.59.786-7.18,0.889-10.874l0.116-5.7c0.051-1.64.077-3.229,0.064-4.869V46.518c-0.013-.865.039-1.744-0.039-2.609a0.746,0.746,0,0,0-.721-0.378l-2.871.013a10.057,10.057,0,0,0-6.515,3.7,0.376,0.376,0,0,1-.489-0.091,1.067,1.067,0,0,1,.026-0.865c0.45-1.046.952-2.079,1.339-3.164V42.863c-0.039-.116-0.168-0.051-0.258-0.064a26.386,26.386,0,0,0-4.725,3.4c-4.056,3.668-6.245,8.291-7.764,13.083a15.876,15.876,0,0,0-1.047,6.064c0.06,0.079.263-.119,0.36-0.369a14.639,14.639,0,0,1,1.936-2.764c2.163-2.092,4.906-2.738,7.764-3.087a0.555,0.555,0,0,0,.425-0.22,11.125,11.125,0,0,0-1.713-.852,5.3,5.3,0,0,1-1.673-1.537c-1.043-1.343-.709-3.332-0.181-4.817a5.735,5.735,0,0,1,4.558-3.177,52.675,52.675,0,0,1,8.2-.116,0.628,0.628,0,0,1,.347.439c-0.115,3.332-.476,6.393-0.669,9.7-0.039,1.033-.206,1.976-0.206,2.97A58.147,58.147,0,0,0,695.033,70c0.464,2.66.528,5.527,2.627,7.529a3.817,3.817,0,0,0,4.094.542c2.395-1.421,2.7-4.21,3.129-6.612a51.119,51.119,0,0,0,.026-10.59c-0.283-3.9-.644-7.826-0.863-11.7a1.164,1.164,0,0,1,.026-0.439,0.664,0.664,0,0,1,.541-0.413l3.952-.026c2.2,0.008,4.314-.491,6.078.62a5.987,5.987,0,0,1,3.154,5.812c-0.232,1.911-2.176,3.241-3.824,3.771a0.648,0.648,0,0,0-.438.3c1.1,0.194,2.344.284,3.477,0.542a9.952,9.952,0,0,1,6.785,5.579,0.166,0.166,0,0,0,.167-0.052,4.288,4.288,0,0,0,0-.72A0.023,0.023,0,0,1,723.965,64.113Zm0,0c0,0.009,0,.015,0,0.023s0,0,.011-0.016S723.967,64.1,723.965,64.113Zm-1.507,9.422c-2.021,2.531-5.2,3.179-8.021,3.526a30.977,30.977,0,0,1-6.914.142,0.547,0.547,0,0,1-.271-0.529,2.586,2.586,0,0,1,.528-1.421c0.633-.188,1.313.374,2.021,0.465,3.387,0.646,7.339.426,9.824-2.234a8.919,8.919,0,0,0,1.49-7.662,7.035,7.035,0,0,0-.235-0.7,9.3,9.3,0,0,0-2.3-3.057c-3-2.182-7.146-2.415-10.726-1.317a0.537,0.537,0,0,1-.4-0.233,1.36,1.36,0,0,1,.4-1.563c1.069-.323,2.215-0.465,3.258-0.865l0.219-.065c1.339-.53,2.845-1.188,3.54-2.673a4.351,4.351,0,0,0-.579-4.481,5.007,5.007,0,0,0-3.154-1.472,38.355,38.355,0,0,0-4.4.09,0.544,0.544,0,0,0-.348.542l-0.025,9.531c-0.065,3.552.038,7.206,0,10.835a14.652,14.652,0,0,1-1.2,6.664,5.611,5.611,0,0,1-2.832,2.441c0.055,0.6.379,0.228,0.785,0.865,1.918,2.376.077,5.179-.965,7.361a10.474,10.474,0,0,0-1.185,3.836,0.946,0.946,0,0,0,.875.284,23.839,23.839,0,0,0,15.528-7.3,21.174,21.174,0,0,0,3.386-4.236,33.682,33.682,0,0,0,2.112-4.481,15.137,15.137,0,0,0,.953-4.378l-0.036-.032C723.282,71.933,723.127,72.915,722.458,73.535Zm-25.395,6.93c0.4-.639.73-0.269,0.783-0.868A5.612,5.612,0,0,1,695,77.166a14.647,14.647,0,0,1-1.221-6.66c-0.052-3.629.038-7.284-.039-10.835l-0.06-9.531a0.543,0.543,0,0,0-.35-0.541,38.388,38.388,0,0,0-4.4-.075,5,5,0,0,0-3.149,1.484,4.351,4.351,0,0,0-.564,4.483c0.7,1.483,2.209,2.136,3.55,2.66l0.22,0.064c1.044,0.4,2.191.535,3.26,0.853a1.359,1.359,0,0,1,.4,1.561,0.537,0.537,0,0,1-.4.234c-3.584-1.085-7.729-.837-10.721,1.356a9.28,9.28,0,0,0-2.286,3.065,5.308,5.308,0,0,0-.2.689,8.806,8.806,0,0,0,1.482,7.666c2.5,2.651,6.448,2.857,9.832,2.2,0.708-.093,1.408-0.635,2.02-0.472a2.4,2.4,0,0,1,.533,1.419,0.485,0.485,0,0,1-.269.53,37.947,37.947,0,0,1-6.914-.117c-2.966-.416-6-0.973-8.034-3.5-0.672-.617-0.83-1.6-1.337-2.107l-0.035.032A15.087,15.087,0,0,0,677.3,76a41.766,41.766,0,0,0,2.128,4.474,29.107,29.107,0,0,0,3.4,4.224,23.84,23.84,0,0,0,15.554,7.241,0.948,0.948,0,0,0,.875-0.287,10.481,10.481,0,0,0-1.2-3.831C697.005,85.644,695.153,82.848,697.063,80.465Z" transform="translate(-676 -39.969)"/>
</svg>
