<svg xmlns="http://www.w3.org/2000/svg" width="17" height="17" viewBox="0 0 17 17">
  <metadata><?xpacket begin="﻿" id="W5M0MpCehiHzreSzNTczkc9d"?>
<x:xmpmeta xmlns:x="adobe:ns:meta/" x:xmptk="Adobe XMP Core 5.6-c138 79.159824, 2016/09/14-01:09:01        ">
   <rdf:RDF xmlns:rdf="http://www.w3.org/1999/02/22-rdf-syntax-ns#">
      <rdf:Description rdf:about=""/>
   </rdf:RDF>
</x:xmpmeta>
                                                                                                    
                                                                                                    
                                                                                                    
                                                                                                    
                                                                                                    
                                                                                                    
                                                                                                    
                                                                                                    
                                                                                                    
                                                                                                    
                                                                                                    
                                                                                                    
                                                                                                    
                                                                                                    
                                                                                                    
                                                                                                    
                                                                                                    
                                                                                                    
                                                                                                    
                                                                                                    
                           
<?xpacket end="w"?></metadata>
<defs>
    <style>
      .cls-1 {
        fill: #3c93ff;
        fill-rule: evenodd;
      }
    </style>
  </defs>
  <path class="cls-1" d="M402,1053H391a3,3,0,0,0-3,3v11a3,3,0,0,0,3,3h11a3,3,0,0,0,3-3v-11A3,3,0,0,0,402,1053Zm2,14a2,2,0,0,1-2,2H391a2,2,0,0,1-2-2v-11a2,2,0,0,1,2-2h11a2,2,0,0,1,2,2v11Zm-12.5-5h4a0.5,0.5,0,0,0,.5-0.5v-4a0.5,0.5,0,0,0-.5-0.5h-4a0.5,0.5,0,0,0-.5.5v4A0.5,0.5,0,0,0,391.5,1062Zm0.5-4h3v3h-3v-3Zm10-.5a0.5,0.5,0,0,1-.5.5h-4a0.5,0.5,0,0,1,0-1h4A0.5,0.5,0,0,1,402,1057.5Zm0,2a0.5,0.5,0,0,1-.5.5h-4a0.5,0.5,0,0,1,0-1h4A0.5,0.5,0,0,1,402,1059.5Zm0,2a0.5,0.5,0,0,1-.5.5h-4a0.5,0.5,0,0,1,0-1h4A0.5,0.5,0,0,1,402,1061.5Zm0,2a0.5,0.5,0,0,1-.5.5h-10a0.5,0.5,0,0,1,0-1h10A0.5,0.5,0,0,1,402,1063.5Zm0,2a0.5,0.5,0,0,1-.5.5h-10a0.5,0.5,0,0,1,0-1h10A0.5,0.5,0,0,1,402,1065.5Z" transform="translate(-388 -1053)"/>
</svg>
