<svg xmlns="http://www.w3.org/2000/svg" width="20" height="18" viewBox="0 0 20 18">
  <metadata><?xpacket begin="﻿" id="W5M0MpCehiHzreSzNTczkc9d"?>
<x:xmpmeta xmlns:x="adobe:ns:meta/" x:xmptk="Adobe XMP Core 5.6-c138 79.159824, 2016/09/14-01:09:01        ">
   <rdf:RDF xmlns:rdf="http://www.w3.org/1999/02/22-rdf-syntax-ns#">
      <rdf:Description rdf:about=""/>
   </rdf:RDF>
</x:xmpmeta>
                                                                                                    
                                                                                                    
                                                                                                    
                                                                                                    
                                                                                                    
                                                                                                    
                                                                                                    
                                                                                                    
                                                                                                    
                                                                                                    
                                                                                                    
                                                                                                    
                                                                                                    
                                                                                                    
                                                                                                    
                                                                                                    
                                                                                                    
                                                                                                    
                                                                                                    
                                                                                                    
                           
<?xpacket end="w"?></metadata>
<defs>
    <style>
      .cls-1 {
        fill: #fff;
        fill-rule: evenodd;
      }
    </style>
  </defs>
  <path class="cls-1" d="M728.972,50H727V47.5a0.5,0.5,0,0,0-.5-0.5h-11a0.5,0.5,0,0,0-.5.5V50h-1.972A2.028,2.028,0,0,0,711,52.028v5.944A2.028,2.028,0,0,0,713.028,60H715v4.5a0.5,0.5,0,0,0,.5.5h11a0.5,0.5,0,0,0,.5-0.5V60h1.972A2.028,2.028,0,0,0,731,57.972V52.028A2.028,2.028,0,0,0,728.972,50ZM716,48h10v2H716V48Zm0,7h10v9H716V55Zm14,2.972A1.029,1.029,0,0,1,728.972,59H727V54.5a0.5,0.5,0,0,0-.5-0.5h-11a0.5,0.5,0,0,0-.5.5V59h-1.972A1.029,1.029,0,0,1,712,57.972V52.028A1.029,1.029,0,0,1,713.028,51h15.944A1.029,1.029,0,0,1,730,52.028v5.944ZM718,58.5a0.5,0.5,0,0,1,.5-0.5h5a0.5,0.5,0,0,1,0,1h-5A0.5,0.5,0,0,1,718,58.5Zm6,2a0.5,0.5,0,0,1-.5.5h-5a0.5,0.5,0,0,1,0-1h5A0.5,0.5,0,0,1,724,60.5Zm5-8a0.5,0.5,0,1,1-.5-0.5A0.5,0.5,0,0,1,729,52.5Z" transform="translate(-711 -47)"/>
</svg>
