<svg xmlns="http://www.w3.org/2000/svg" width="16" height="18.844" viewBox="0 0 16 18.844">
  <metadata><?xpacket begin="﻿" id="W5M0MpCehiHzreSzNTczkc9d"?>
<x:xmpmeta xmlns:x="adobe:ns:meta/" x:xmptk="Adobe XMP Core 5.6-c138 79.159824, 2016/09/14-01:09:01        ">
   <rdf:RDF xmlns:rdf="http://www.w3.org/1999/02/22-rdf-syntax-ns#">
      <rdf:Description rdf:about=""/>
   </rdf:RDF>
</x:xmpmeta>
                                                                                                    
                                                                                                    
                                                                                                    
                                                                                                    
                                                                                                    
                                                                                                    
                                                                                                    
                                                                                                    
                                                                                                    
                                                                                                    
                                                                                                    
                                                                                                    
                                                                                                    
                                                                                                    
                                                                                                    
                                                                                                    
                                                                                                    
                                                                                                    
                                                                                                    
                                                                                                    
                           
<?xpacket end="w"?></metadata>
<defs>
    <style>
      .cls-1 {
        fill: #fff;
        fill-rule: evenodd;
      }
    </style>
  </defs>
  <path class="cls-1" d="M1114,647.457v1.167a0.3,0.3,0,0,0,.45.278l3.4-2.159a0.333,0.333,0,0,0,0-.556l-3.4-2.158a0.3,0.3,0,0,0-.45.277v1.167a7.979,7.979,0,0,0-8,7.938,7.823,7.823,0,0,0,.8,3.464,1,1,0,0,0,1.8-.867,5.825,5.825,0,0,1-.6-2.6A5.983,5.983,0,0,1,1114,647.457Zm7.2,2.491a1.007,1.007,0,0,0-1.34-.46,1,1,0,0,0-.46,1.326,5.825,5.825,0,0,1,.6,2.6,5.983,5.983,0,0,1-6,5.954V658.2a0.3,0.3,0,0,0-.45-0.278l-3.4,2.159a0.332,0.332,0,0,0,0,.555l3.4,2.159a0.3,0.3,0,0,0,.45-0.278V661.35a7.98,7.98,0,0,0,8-7.939A7.816,7.816,0,0,0,1121.2,649.948Z" transform="translate(-1106 -644)"/>
</svg>
