<svg xmlns="http://www.w3.org/2000/svg" width="15" height="15" viewBox="0 0 15 15">
  <metadata><?xpacket begin="﻿" id="W5M0MpCehiHzreSzNTczkc9d"?>
<x:xmpmeta xmlns:x="adobe:ns:meta/" x:xmptk="Adobe XMP Core 5.6-c138 79.159824, 2016/09/14-01:09:01        ">
   <rdf:RDF xmlns:rdf="http://www.w3.org/1999/02/22-rdf-syntax-ns#">
      <rdf:Description rdf:about=""/>
   </rdf:RDF>
</x:xmpmeta>
                                                                                                    
                                                                                                    
                                                                                                    
                                                                                                    
                                                                                                    
                                                                                                    
                                                                                                    
                                                                                                    
                                                                                                    
                                                                                                    
                                                                                                    
                                                                                                    
                                                                                                    
                                                                                                    
                                                                                                    
                                                                                                    
                                                                                                    
                                                                                                    
                                                                                                    
                                                                                                    
                           
<?xpacket end="w"?></metadata>
<defs>
    <style>
      .cls-1 {
        fill: #3d94ff;
        fill-rule: evenodd;
      }
    </style>
  </defs>
  <path class="cls-1" d="M604.5,512h-10a2.5,2.5,0,0,0-2.5,2.5v10a2.5,2.5,0,0,0,2.5,2.5h10a2.5,2.5,0,0,0,2.5-2.5v-10A2.5,2.5,0,0,0,604.5,512Zm1.5,12.5a1.5,1.5,0,0,1-1.5,1.5h-10a1.5,1.5,0,0,1-1.5-1.5v-10a1.5,1.5,0,0,1,1.5-1.5h10a1.5,1.5,0,0,1,1.5,1.5v10Zm-9-5.5h1v1h-1v-1Zm1-4h-1v-1h1v1Zm4,0h-1v-1h1v1Zm-3,4h1v1h-1v-1Zm2,0h1v1h-1v-1Zm2,0h1v1h-1v-1Zm-8,2h1v1h-1v-1Zm2,0h1v1h-1v-1Zm2,0h1v1h-1v-1Zm2,0h1v1h-1v-1Zm2,0h1v1h-1v-1Zm-8,2h1v1h-1v-1Zm2,0h1v1h-1v-1Zm2,0h1v1h-1v-1Zm2,0h1v1h-1v-1Zm4-6.5a0.5,0.5,0,0,1-.5.5h-10a0.5,0.5,0,0,1,0-1h10A0.5,0.5,0,0,1,605,516.5Z" transform="translate(-592 -512)"/>
</svg>
