<svg xmlns="http://www.w3.org/2000/svg" width="14" height="18" viewBox="0 0 14 18">
  <metadata><?xpacket begin="﻿" id="W5M0MpCehiHzreSzNTczkc9d"?>
<x:xmpmeta xmlns:x="adobe:ns:meta/" x:xmptk="Adobe XMP Core 5.6-c138 79.159824, 2016/09/14-01:09:01        ">
   <rdf:RDF xmlns:rdf="http://www.w3.org/1999/02/22-rdf-syntax-ns#">
      <rdf:Description rdf:about=""/>
   </rdf:RDF>
</x:xmpmeta>
                                                                                                    
                                                                                                    
                                                                                                    
                                                                                                    
                                                                                                    
                                                                                                    
                                                                                                    
                                                                                                    
                                                                                                    
                                                                                                    
                                                                                                    
                                                                                                    
                                                                                                    
                                                                                                    
                                                                                                    
                                                                                                    
                                                                                                    
                                                                                                    
                                                                                                    
                                                                                                    
                           
<?xpacket end="w"?></metadata>
<defs>
    <style>
      .cls-1 {
        fill-rule: evenodd;
      }
    </style>
  </defs>
  <path class="cls-1" d="M500.2,608a1.2,1.2,0,1,1-1.2-1.2A1.2,1.2,0,0,1,500.2,608Zm5.8-12v12a3,3,0,0,1-3,3h-8a3,3,0,0,1-3-3V596a3,3,0,0,1,3-3h8A3,3,0,0,1,506,596Zm-1,0a2,2,0,0,0-2-2h-8a2,2,0,0,0-2,2v12a2,2,0,0,0,2,2h8a2,2,0,0,0,2-2V596Zm-2.5,1h-7a0.5,0.5,0,0,0,0,1h7A0.5,0.5,0,0,0,502.5,597Zm0,2h-7a0.5,0.5,0,0,0,0,1h7A0.5,0.5,0,0,0,502.5,599Zm0,2h-7a0.5,0.5,0,0,0,0,1h7A0.5,0.5,0,0,0,502.5,601Zm0,2h-7a0.5,0.5,0,0,0,0,1h7A0.5,0.5,0,0,0,502.5,603Z" transform="translate(-492 -593)"/>
</svg>
