<svg xmlns="http://www.w3.org/2000/svg" width="14" height="13" viewBox="0 0 14 13">
  <metadata><?xpacket begin="﻿" id="W5M0MpCehiHzreSzNTczkc9d"?>
<x:xmpmeta xmlns:x="adobe:ns:meta/" x:xmptk="Adobe XMP Core 5.6-c138 79.159824, 2016/09/14-01:09:01        ">
   <rdf:RDF xmlns:rdf="http://www.w3.org/1999/02/22-rdf-syntax-ns#">
      <rdf:Description rdf:about=""/>
   </rdf:RDF>
</x:xmpmeta>
                                                                                                    
                                                                                                    
                                                                                                    
                                                                                                    
                                                                                                    
                                                                                                    
                                                                                                    
                                                                                                    
                                                                                                    
                                                                                                    
                                                                                                    
                                                                                                    
                                                                                                    
                                                                                                    
                                                                                                    
                                                                                                    
                                                                                                    
                                                                                                    
                                                                                                    
                                                                                                    
                           
<?xpacket end="w"?></metadata>
<defs>
    <style>
      .cls-1 {
        fill-rule: evenodd;
      }
    </style>
  </defs>
  <path class="cls-1" d="M163.5,596h-13a0.5,0.5,0,0,1,0-1h13A0.5,0.5,0,0,1,163.5,596Zm0.5,3.5a0.5,0.5,0,0,0-.5-0.5h-13a0.5,0.5,0,0,0,0,1h13A0.5,0.5,0,0,0,164,599.5Zm0,4a0.5,0.5,0,0,0-.5-0.5h-13a0.5,0.5,0,0,0,0,1h13A0.5,0.5,0,0,0,164,603.5Zm-4,4a0.5,0.5,0,0,0-.5-0.5h-9a0.5,0.5,0,0,0,0,1h9A0.5,0.5,0,0,0,160,607.5Z" transform="translate(-150 -595)"/>
</svg>
